<?xml version="1.0" encoding="UTF-8"?>
<svg version="1.1" xmlns="http://www.w3.org/2000/svg" width="130" height="128">
<path d="M0 0 C42.9 0 85.8 0 130 0 C130 42.24 130 84.48 130 128 C87.1 128 44.2 128 0 128 C0 85.76 0 43.52 0 0 Z " fill="#040504" transform="translate(0,0)"/>
<path d="M0 0 C55 0 55 0 66 1 C69.25997196 1.07569972 72.49572354 1.11836859 75.75390625 1.09765625 C76.62144028 1.0962413 77.4889743 1.09482635 78.38279724 1.09336853 C81.10940247 1.08784706 83.83592034 1.07531674 86.5625 1.0625 C88.42252483 1.05747422 90.28255099 1.05291322 92.14257812 1.04882812 C96.76174865 1.03771725 101.38085877 1.01968169 106 1 C113 1 120 1 127 1 C128.69196504 4.38393008 128.11986549 8.22477791 128.09765625 11.9453125 C128.09553383 13.27283035 128.09553383 13.27283035 128.09336853 14.62716675 C128.0877614 17.45981191 128.07520771 20.29237864 128.0625 23.125 C128.05748592 25.04296761 128.05292285 26.96093646 128.04882812 28.87890625 C128.03778966 33.58596782 128.02052025 38.2929706 128 43 C124.04 44.32 120.08 45.64 116 47 C119.96 46.01 123.92 45.02 128 44 C128 50.6 128 57.2 128 64 C124.7 64 121.4 64 118 64 C118 63.34 118 62.68 118 62 C114.7 62 111.4 62 108 62 C108 60.68 108 59.36 108 58 C110.97 58 113.94 58 117 58 C117 56.35 117 54.7 117 53 C112.38 53 107.76 53 103 53 C103 56.96 103 60.92 103 65 C101.02 65 99.04 65 97 65 C97 64.67 97 64.34 97 64 C98.65 64 100.3 64 102 64 C101.814375 63.29875 101.62875 62.5975 101.4375 61.875 C100.94843024 58.66111302 101.33768442 56.16439664 102 53 C101.34 52.67 100.68 52.34 100 52 C101.32 51.67 102.64 51.34 104 51 C103.814375 49.9275 103.62875 48.855 103.4375 47.75 C103 44 103 44 104 40 C101.36 40.99 98.72 41.98 96 43 C96 41.02 96 39.04 96 37 C97.32 37 98.64 37 100 37 C99.67 36.01 99.34 35.02 99 34 C97.02087544 33.83283412 95.04169915 33.66628044 93.0625 33.5 C91.40927734 33.36078125 91.40927734 33.36078125 89.72265625 33.21875 C87.86332446 33.05960035 87.86332446 33.05960035 86 33 C83.99890722 32.67329097 81.99883869 32.34022786 80 32 C80 32.66 80 33.32 80 34 C76.04 34 72.08 34 68 34 C68 37.63 68 41.26 68 45 C66.68 44.34 65.36 43.68 64 43 C64.99 42.01 64.99 42.01 66 41 C66.24212873 39.01871492 66.24212873 39.01871492 66.125 36.875 C66.08375 35.59625 66.0425 34.3175 66 33 C65.24074219 33.05800781 64.48148437 33.11601563 63.69921875 33.17578125 C60.73174507 33.31049147 57.95021106 33.36116153 55 33 C52.73702662 30.54305747 52 29.3203746 52 26 C51.39671875 26.01160156 50.7934375 26.02320312 50.171875 26.03515625 C48.97304687 26.04869141 48.97304687 26.04869141 47.75 26.0625 C46.56664063 26.07990234 46.56664063 26.07990234 45.359375 26.09765625 C43.08995858 26.00372345 41.17852589 25.61210794 39 25 C38.67 25 38.34 25 38 25 C34.33333333 25 30.66666667 25 27 25 C26.83232136 26.95824694 26.66588795 28.91660055 26.5 30.875 C26.36078125 32.51082031 26.36078125 32.51082031 26.21875 34.1796875 C26.09437042 35.78329564 26 37.39157551 26 39 C25.98836858 40.36588616 25.97663535 41.73177146 25.96484375 43.09765625 C25.95552386 44.75260302 25.94641812 46.40755101 25.9375 48.0625 C25.92912109 48.90361328 25.92074219 49.74472656 25.91210938 50.61132812 C25.90352863 52.74106964 25.94755879 54.87088693 26 57 C26.495 57.495 26.495 57.495 27 58 C27.04063832 59.66617115 27.042721 61.33388095 27 63 C25.68 63 24.36 63 23 63 C23 63.66 23 64.32 23 65 C24.32 65.33 25.64 65.66 27 66 C27 67.98 27 69.96 27 72 C25.35 72 23.7 72 22 72 C22 73.32 22 74.64 22 76 C19.03 76 16.06 76 13 76 C12.67 72.04 12.34 68.08 12 64 C8.7 64 5.4 64 2 64 C2 57.07 2 50.14 2 43 C1.67 71.05 1.34 99.1 1 128 C0.67 128 0.34 128 0 128 C0 85.76 0 43.52 0 0 Z " fill="#141315" transform="translate(0,0)"/>
<path d="M0 0 C3.3 0 6.6 0 10 0 C10.33 3.63 10.66 7.26 11 11 C11.99 11.33 12.98 11.66 14 12 C14 12.99 14 13.98 14 15 C13.01 15.495 13.01 15.495 12 16 C12.66 16.66 13.32 17.32 14 18 C14.1953125 21.22265625 14.1953125 21.22265625 14.125 25.0625 C14.10695313 26.33222656 14.08890625 27.60195312 14.0703125 28.91015625 C14.04710937 29.92980469 14.02390625 30.94945313 14 32 C14 32.33 14 32.66 14 33 C14 36.66666667 14 40.33333333 14 44 C17.3685658 43.42587449 18.71914516 42.4468433 20.984375 39.9453125 C25.09997366 36.26674913 28.66195733 36.47732437 34 36.66796875 C35.0725 36.73628906 36.145 36.80460937 37.25 36.875 C39.40010676 36.99473343 41.55127016 37.09712871 43.703125 37.1796875 C44.64833008 37.23882324 45.59353516 37.29795898 46.56738281 37.35888672 C49.17256346 37.23688393 49.17256346 37.23688393 50.83105469 34.98876953 C51.21680664 34.33247559 51.60255859 33.67618164 52 33 C52 34.32 52 35.64 52 37 C55.62493334 37.05787784 59.24974857 37.0935542 62.875 37.125 C63.90753906 37.14175781 64.94007812 37.15851563 66.00390625 37.17578125 C66.99003906 37.18222656 67.97617188 37.18867187 68.9921875 37.1953125 C69.90339355 37.20578613 70.81459961 37.21625977 71.75341797 37.22705078 C74.20290436 37.21870993 74.20290436 37.21870993 76 35 C76 35.99 76 36.98 76 38 C88.375 37.505 88.375 37.505 101 37 C101.33 33.04 101.66 29.08 102 25 C101.34 24.67 100.68 24.34 100 24 C100.66 24 101.32 24 102 24 C102 19.71 102 15.42 102 11 C106.62 11 111.24 11 116 11 C116 7.37 116 3.74 116 0 C119.3 0 122.6 0 126 0 C126 6.27 126 12.54 126 19 C123.69 18.67 121.38 18.34 119 18 C121.31 18.66 123.62 19.32 126 20 C126 26.6 126 33.2 126 40 C125.34 40 124.68 40 124 40 C124.66 40.33 125.32 40.66 126 41 C126.02888146 44.31248187 126.04675799 47.62493167 126.0625 50.9375 C126.07087891 51.88302734 126.07925781 52.82855469 126.08789062 53.80273438 C126.09111328 54.70185547 126.09433594 55.60097656 126.09765625 56.52734375 C126.10289307 57.35999756 126.10812988 58.19265137 126.11352539 59.05053711 C126 61 126 61 125 62 C123.52301866 62.08671671 122.0419951 62.10703293 120.5625 62.09765625 C119.66789062 62.09443359 118.77328125 62.09121094 117.8515625 62.08789062 C116.91054687 62.07951172 115.96953125 62.07113281 115 62.0625 C114.05898437 62.05798828 113.11796875 62.05347656 112.1484375 62.04882812 C109.76556916 62.03681078 107.38281557 62.01955594 105 62 C104.67 62 104.34 62 104 62 C97.66666667 62 91.33333333 62 85 62 C83.68 59.03 82.36 56.06 81 53 C78.03 53 75.06 53 72 53 C71.505 53.99 71.505 53.99 71 55 C70.4225 54.835 69.845 54.67 69.25 54.5 C66.73335631 53.85537969 66.73335631 53.85537969 63 54 C63 53.34 63 52.68 63 52 C60.36 52.33 57.72 52.66 55 53 C55.33 53.33 55.66 53.66 56 54 C56.33 54.66 56.66 55.32 57 56 C60.02934491 56.65772428 60.02934491 56.65772428 63 57 C62.67 58.65 62.34 60.3 62 62 C55.73 62 49.46 62 43 62 C43.66 60.35 44.32 58.7 45 57 C47.31 56.67 49.62 56.34 52 56 C52 55.34 52 54.68 52 54 C50.02 53.34 48.04 52.68 46 52 C45.896875 52.53625 45.79375 53.0725 45.6875 53.625 C45 56 45 56 42 62 C28.8 62 15.6 62 2 62 C3.32 60.02 4.64 58.04 6 56 C3.03 58.475 3.03 58.475 0 61 C0 40.87 0 20.74 0 0 Z " fill="#030303" transform="translate(2,65)"/>
<path d="M0 0 C55 0 55 0 64 1 C64 5.62 64 10.24 64 15 C48 15 32 15 16 15 C16 25.56 16 36.12 16 47 C14.68 47 13.36 47 12 47 C13.32 47.33 14.64 47.66 16 48 C16 49.32 16 50.64 16 52 C14.515 52.495 14.515 52.495 13 53 C12.67 56.63 12.34 60.26 12 64 C8.7 64 5.4 64 2 64 C2 57.07 2 50.14 2 43 C1.67 71.05 1.34 99.1 1 128 C0.67 128 0.34 128 0 128 C0 85.76 0 43.52 0 0 Z " fill="#010101" transform="translate(0,0)"/>
<path d="M0 0 C13.33333333 0 26.66666667 0 40 0 C41.69196504 3.38393008 41.11986549 7.22477791 41.09765625 10.9453125 C41.0962413 11.8303244 41.09482635 12.7153363 41.09336853 13.62716675 C41.0877614 16.45981191 41.07520771 19.29237864 41.0625 22.125 C41.05748592 24.04296761 41.05292285 25.96093646 41.04882812 27.87890625 C41.03778966 32.58596782 41.02052025 37.2929706 41 42 C37.04 43.32 33.08 44.64 29 46 C32.96 45.01 36.92 44.02 41 43 C41 49.6 41 56.2 41 63 C37.7 63 34.4 63 31 63 C31 62.34 31 61.68 31 61 C27.7 61 24.4 61 21 61 C21 59.68 21 58.36 21 57 C23.97 57 26.94 57 30 57 C30 55.35 30 53.7 30 52 C29.01 52 28.02 52 27 52 C27 39.79 27 27.58 27 15 C22.71 14.67 18.42 14.34 14 14 C14 13.34 14 12.68 14 12 C13.01 12.66 12.02 13.32 11 14 C8.52943177 14.17112002 6.17496079 14.23253124 3.70703125 14.1953125 C3.00100266 14.1924826 2.29497406 14.18965271 1.56755066 14.18673706 C-0.68430633 14.17555464 -2.93576352 14.1504542 -5.1875 14.125 C-6.71548904 14.11496767 -8.24348433 14.10584226 -9.77148438 14.09765625 C-13.51447663 14.07562172 -17.25717056 14.04110567 -21 14 C-21.02686553 12.02090602 -21.04633375 10.04171029 -21.0625 8.0625 C-21.07410156 6.96035156 -21.08570312 5.85820312 -21.09765625 4.72265625 C-21 2 -21 2 -20 1 C-18.65732587 0.91368126 -17.31025678 0.89293527 -15.96484375 0.90234375 C-15.15595703 0.90556641 -14.34707031 0.90878906 -13.51367188 0.91210938 C-12.66353516 0.92048828 -11.81339844 0.92886719 -10.9375 0.9375 C-10.08349609 0.94201172 -9.22949219 0.94652344 -8.34960938 0.95117188 C-6.23304337 0.96299627 -4.11651315 0.98093231 -2 1 C-2 2.32 -2 3.64 -2 5 C-1.34 3.35 -0.68 1.7 0 0 Z " fill="#020202" transform="translate(87,1)"/>
<path d="M0 0 C24.75 0 49.5 0 75 0 C75 42.24 75 84.48 75 128 C32.43 128 -10.14 128 -54 128 C-54 86.09 -54 44.18 -54 1 C-53.67 1 -53.34 1 -53 1 C-53 14.86 -53 28.72 -53 43 C-52.34 43.33 -51.68 43.66 -51 44 C-51.66 44 -52.32 44 -53 44 C-53 50.6 -53 57.2 -53 64 C-49.7 64 -46.4 64 -43 64 C-43 60.37 -43 56.74 -43 53 C-42.67 53 -42.34 53 -42 53 C-42 60.59 -42 68.18 -42 76 C-42.33 76 -42.66 76 -43 76 C-43 72.37 -43 68.74 -43 65 C-46.3 65 -49.6 65 -53 65 C-52.67 84.8 -52.34 104.6 -52 125 C-50.02 123.35 -48.04 121.7 -46 120 C-47.15173355 122.46800047 -48.04783565 124.04783565 -50 126 C-48.29070313 125.98259766 -48.29070313 125.98259766 -46.546875 125.96484375 C-34.664388 125.88376057 -22.86086407 126.30009654 -11 127 C-10.80083984 125.84951172 -10.80083984 125.84951172 -10.59765625 124.67578125 C-9.92250148 121.6530295 -8.69124172 119.5736287 -7 117 C-4.36 117.33 -1.72 117.66 1 118 C0.01 118.495 0.01 118.495 -1 119 C-1 119.66 -1 120.32 -1 121 C-2.7015625 121.4021875 -2.7015625 121.4021875 -4.4375 121.8125 C-5.613125 122.204375 -6.78875 122.59625 -8 123 C-8.495 124.485 -8.495 124.485 -9 126 C-3.06 126 2.88 126 9 126 C9.495 124.02 9.495 124.02 10 122 C7.03 121.67 4.06 121.34 1 121 C1.495 119.515 1.495 119.515 2 118 C6.72929973 117.2785814 10.31999534 116.82999884 15 118 C18.16227399 118 21.11640488 117.82985212 24.25 117.5 C25.14203125 117.4071875 26.0340625 117.314375 26.953125 117.21875 C27.62859375 117.1465625 28.3040625 117.074375 29 117 C29.99 119.97 30.98 122.94 32 126 C37.94 126 43.88 126 50 126 C50.33 125.34 50.66 124.68 51 124 C51.33 124.99 51.66 125.98 52 127 C61.9 126.505 61.9 126.505 72 126 C72.33 119.4 72.66 112.8 73 106 C71.515 105.505 71.515 105.505 70 105 C70.66 104.67 71.32 104.34 72 104 C72.33 97.73 72.66 91.46 73 85 C70.69 84.67 68.38 84.34 66 84 C64.515 83.01 64.515 83.01 63 82 C66.46941546 82.45822468 69.67395049 82.89131683 73 84 C73 77.73 73 71.46 73 65 C69.7 65 66.4 65 63 65 C63 68.63 63 72.26 63 76 C58.05 76 53.1 76 48 76 C48 74.35 48 72.7 48 71 C50.97 71 53.94 71 57 71 C57 69.68 57 68.36 57 67 C54.03 67 51.06 67 48 67 C48 62.38 48 57.76 48 53 C52.62 53 57.24 53 62 53 C62 54.65 62 56.3 62 58 C59.03 58 56.06 58 53 58 C53 59.32 53 60.64 53 62 C56.3 62 59.6 62 63 62 C63 62.66 63 63.32 63 64 C66.3 64 69.6 64 73 64 C72.67 57.73 72.34 51.46 72 45 C69.03 45.99 66.06 46.98 63 48 C61.515 47.505 61.515 47.505 60 47 C64.35683897 45.09388295 68.2214066 44.19464835 73 43 C73 36.73 73 30.46 73 24 C72.34 23.67 71.68 23.34 71 23 C71.66 23 72.32 23 73 23 C72.67 15.74 72.34 8.48 72 1 C68.90625 1.144375 65.8125 1.28875 62.625 1.4375 C61.16441162 1.50215454 61.16441162 1.50215454 59.67431641 1.56811523 C58.52455322 1.6252771 58.52455322 1.6252771 57.3515625 1.68359375 C56.56604004 1.72025146 55.78051758 1.75690918 54.97119141 1.79467773 C52.92476504 1.890891 52.92476504 1.890891 51 3 C51 2.34 51 1.68 51 1 C49.21722656 1.10828125 49.21722656 1.10828125 47.3984375 1.21875 C38.03516304 1.7555408 28.69211525 2.10573012 19.3125 2.125 C18.41772949 2.12951172 17.52295898 2.13402344 16.60107422 2.13867188 C10.99278715 2.12609489 5.5637332 1.71026381 0 1 C0 0.67 0 0.34 0 0 Z " fill="#222021" transform="translate(55,0)"/>
<path d="M0 0 C2.12534659 0.14069196 4.25027529 0.28770921 6.375 0.4375 C7.55835938 0.51871094 8.74171875 0.59992187 9.9609375 0.68359375 C13 1 13 1 15 2 C15 13.22 15 24.44 15 36 C12.69 36 10.38 36 8 36 C6.98105924 30.15111957 6.88201547 24.49080831 6.9375 18.5625 C6.94201172 17.64017578 6.94652344 16.71785156 6.95117188 15.76757812 C6.96286062 13.51164952 6.97924545 11.25586033 7 9 C6.01 9.33 5.02 9.66 4 10 C4.66 10.33 5.32 10.66 6 11 C6 15.29 6 19.58 6 24 C3.36 24.99 0.72 25.98 -2 27 C-2 25.02 -2 23.04 -2 21 C-0.68 21 0.64 21 2 21 C1.505 19.515 1.505 19.515 1 18 C-0.97912456 17.83283412 -2.95830085 17.66628044 -4.9375 17.5 C-6.59072266 17.36078125 -6.59072266 17.36078125 -8.27734375 17.21875 C-10.13667554 17.05960035 -10.13667554 17.05960035 -12 17 C-14.00109278 16.67329097 -16.00116131 16.34022786 -18 16 C-18 16.66 -18 17.32 -18 18 C-21.96 18 -25.92 18 -30 18 C-30 21.63 -30 25.26 -30 29 C-31.32 28.34 -32.64 27.68 -34 27 C-33.34 26.34 -32.68 25.68 -32 25 C-31.75787127 23.01871492 -31.75787127 23.01871492 -31.875 20.875 C-31.91625 19.59625 -31.9575 18.3175 -32 17 C-35.63 17 -39.26 17 -43 17 C-43.27714844 16.09636719 -43.55429687 15.19273438 -43.83984375 14.26171875 C-44.20207031 13.08222656 -44.56429687 11.90273438 -44.9375 10.6875 C-45.29714844 9.51574219 -45.65679687 8.34398437 -46.02734375 7.13671875 C-46.66372279 5.08446023 -47.32053379 3.03839863 -48 1 C-32.82 1 -17.64 1 -2 1 C-2 1.66 -2 2.32 -2 3 C-1.34 2.01 -0.68 1.02 0 0 Z " fill="#040403" transform="translate(98,16)"/>
<path d="M0 0 C1.44002794 0.03517403 2.88013901 0.06710231 4.3203125 0.09570312 C7.9234419 0.17394969 11.52355744 0.30169225 15.125 0.4375 C15.785 0.4375 16.445 0.4375 17.125 0.4375 C21.79166667 0.4375 26.45833333 0.4375 31.125 0.4375 C31.62 2.4175 31.62 2.4175 32.125 4.4375 C29.485 4.7675 26.845 5.0975 24.125 5.4375 C24.62 5.9325 24.62 5.9325 25.125 6.4375 C25.62 7.4275 25.62 7.4275 26.125 8.4375 C29.15434491 9.09522428 29.15434491 9.09522428 32.125 9.4375 C31.795 11.0875 31.465 12.7375 31.125 14.4375 C24.855 14.4375 18.585 14.4375 12.125 14.4375 C12.785 12.7875 13.445 11.1375 14.125 9.4375 C17.59 8.9425 17.59 8.9425 21.125 8.4375 C21.125 7.7775 21.125 7.1175 21.125 6.4375 C19.145 5.7775 17.165 5.1175 15.125 4.4375 C15.021875 4.97375 14.91875 5.51 14.8125 6.0625 C14.125 8.4375 14.125 8.4375 11.125 14.4375 C-2.075 14.4375 -15.275 14.4375 -28.875 14.4375 C-19.94570549 1.93648769 -15.18744114 -0.64380035 0 0 Z " fill="#010101" transform="translate(32.875,112.5625)"/>
<path d="M0 0 C0.66 0.33 1.32 0.66 2 1 C2 1.66 2 2.32 2 3 C3.35544922 3.02126953 3.35544922 3.02126953 4.73828125 3.04296875 C5.91777344 3.09066406 7.09726562 3.13835938 8.3125 3.1875 C9.48425781 3.22230469 10.65601563 3.25710937 11.86328125 3.29296875 C15 4 15 4 16.91796875 6.42578125 C18 9 18 9 18 11 C21.63 11 25.26 11 29 11 C30.38125018 13.76250036 30.19079306 15.94731099 30 19 C29.34 19.66 28.68 20.32 28 21 C28.66 21.33 29.32 21.66 30 22 C30 22.66 30 23.32 30 24 C25.25 23.25 25.25 23.25 23 21 C20.93125966 20.3574765 20.93125966 20.3574765 19 20 C19 21.32 19 22.64 19 24 C18.34 24 17.68 24 17 24 C17 19.71 17 15.42 17 11 C16.34 11 15.68 11 15 11 C15.12375 12.299375 15.12375 12.299375 15.25 13.625 C14.94096673 17.79694919 13.56635985 19.7543096 11 23 C7.74696956 24.62651522 4.60774398 24.11453156 1 24 C0.67 23.67 0.34 23.34 0 23 C-1.155 22.855625 -2.31 22.71125 -3.5 22.5625 C-4.655 22.376875 -5.81 22.19125 -7 22 C-7.33 21.34 -7.66 20.68 -8 20 C-7.34 19.01 -6.68 18.02 -6 17 C-5.57216934 14.19409764 -5.77169298 11.8766685 -6 9 C-6.99 8.34 -7.98 7.68 -9 7 C-8.99476318 7.66531738 -8.98952637 8.33063477 -8.98413086 9.01611328 C-8.96324747 12.05239911 -8.9503038 15.08866978 -8.9375 18.125 C-8.92912109 19.17171875 -8.92074219 20.2184375 -8.91210938 21.296875 C-8.89624793 26.3090905 -8.91822787 31.07665912 -10 36 C-11.65 36 -13.3 36 -15 36 C-13.02 35.505 -13.02 35.505 -11 35 C-11.14046255 32.04132082 -11.28712224 29.08317736 -11.4375 26.125 C-11.47681641 25.28324219 -11.51613281 24.44148438 -11.55664062 23.57421875 C-11.59853516 22.76855469 -11.64042969 21.96289062 -11.68359375 21.1328125 C-11.72025146 20.38918457 -11.75690918 19.64555664 -11.79467773 18.87939453 C-11.89955865 16.91135688 -11.89955865 16.91135688 -13 15 C-12.34 15 -11.68 15 -11 15 C-11 11.04 -11 7.08 -11 3 C-8.59454362 1.79727181 -7.05003047 1.89928528 -4.375 1.9375 C-3.14910156 1.95103516 -3.14910156 1.95103516 -1.8984375 1.96484375 C-0.95871094 1.98224609 -0.95871094 1.98224609 0 2 C0 1.34 0 0.68 0 0 Z " fill="#110F10" transform="translate(37,22)"/>
<path d="M0 0 C2.64 0 5.28 0 8 0 C8 11.55 8 23.1 8 35 C-7.51 35 -23.02 35 -39 35 C-39 32.36 -39 29.72 -39 27 C-35.04 27 -31.08 27 -27 27 C-26.34 28.32 -25.68 29.64 -25 31 C-25.33 29.68 -25.66 28.36 -26 27 C-17.42 27 -8.84 27 0 27 C0 18.09 0 9.18 0 0 Z " fill="#010101" transform="translate(105,77)"/>
<path d="M0 0 C24.75 0 49.5 0 75 0 C75 21.45 75 42.9 75 65 C71.04 65 67.08 65 63 65 C63 68.63 63 72.26 63 76 C58.05 76 53.1 76 48 76 C48 74.35 48 72.7 48 71 C50.97 71 53.94 71 57 71 C57 69.68 57 68.36 57 67 C54.03 67 51.06 67 48 67 C48 62.38 48 57.76 48 53 C52.62 53 57.24 53 62 53 C62 54.65 62 56.3 62 58 C59.03 58 56.06 58 53 58 C53 59.32 53 60.64 53 62 C56.3 62 59.6 62 63 62 C63 62.66 63 63.32 63 64 C66.3 64 69.6 64 73 64 C72.67 57.73 72.34 51.46 72 45 C69.03 45.99 66.06 46.98 63 48 C62.01 47.67 61.02 47.34 60 47 C64.35683897 45.09388295 68.2214066 44.19464835 73 43 C73 36.73 73 30.46 73 24 C72.34 23.67 71.68 23.34 71 23 C71.66 23 72.32 23 73 23 C72.67 15.74 72.34 8.48 72 1 C68.90625 1.144375 65.8125 1.28875 62.625 1.4375 C61.16441162 1.50215454 61.16441162 1.50215454 59.67431641 1.56811523 C58.52455322 1.6252771 58.52455322 1.6252771 57.3515625 1.68359375 C56.56604004 1.72025146 55.78051758 1.75690918 54.97119141 1.79467773 C52.92476504 1.890891 52.92476504 1.890891 51 3 C51 2.34 51 1.68 51 1 C49.21722656 1.10828125 49.21722656 1.10828125 47.3984375 1.21875 C38.03516304 1.7555408 28.69211525 2.10573012 19.3125 2.125 C18.41772949 2.12951172 17.52295898 2.13402344 16.60107422 2.13867188 C10.99278715 2.12609489 5.5637332 1.71026381 0 1 C0 0.67 0 0.34 0 0 Z " fill="#252525" transform="translate(55,0)"/>
<path d="M0 0 C10 0 20 0 30 0 C31.25664978 2.90600261 32 4.79604584 32 8 C24 8 16 8 8 8 C7.83232136 9.95824694 7.66588795 11.91660055 7.5 13.875 C7.4071875 14.96554688 7.314375 16.05609375 7.21875 17.1796875 C7.09437042 18.78329564 7 20.39157551 7 22 C7 28 7 34 7 40 C5.68 40 4.36 40 3 40 C3 38.35 3 36.7 3 35 C1.68 35 0.36 35 -1 35 C-1 34.34 -1 33.68 -1 33 C-0.01 32.505 -0.01 32.505 1 32 C0.34 31.67 -0.32 31.34 -1 31 C-1 26.38 -1 21.76 -1 17 C-0.34 17 0.32 17 1 17 C0.34 16.67 -0.32 16.34 -1 16 C-1 11.38 -1 6.76 -1 2 C0.98 2.99 0.98 2.99 3 4 C2.01 2.68 1.02 1.36 0 0 Z " fill="#000001" transform="translate(19,17)"/>
<path d="M0 0 C1.98 0 3.96 0 6 0 C6 5.94 6 11.88 6 18 C8.97 18 11.94 18 15 18 C15 19.65 15 21.3 15 23 C13.41058594 23.09087891 13.41058594 23.09087891 11.7890625 23.18359375 C10.40102779 23.26800127 9.01300768 23.35264917 7.625 23.4375 C6.57699219 23.49647461 6.57699219 23.49647461 5.5078125 23.55664062 C1.62639508 23.74280134 1.62639508 23.74280134 -2 25 C-3.13350534 27.01669827 -3.13350534 27.01669827 -4 29 C-4.33 28.01 -4.66 27.02 -5 26 C-6.98 26.66 -8.96 27.32 -11 28 C-11 32.29 -11 36.58 -11 41 C-10.34 41.33 -9.68 41.66 -9 42 C-10.485 42.495 -10.485 42.495 -12 43 C-12 47.29 -12 51.58 -12 56 C-12.66 56 -13.32 56 -14 56 C-14.07347656 54.93458984 -14.07347656 54.93458984 -14.1484375 53.84765625 C-14.22320312 52.92855469 -14.29796875 52.00945312 -14.375 51.0625 C-14.44460938 50.14597656 -14.51421875 49.22945312 -14.5859375 48.28515625 C-14.72257813 47.53105469 -14.85921875 46.77695313 -15 46 C-15.66 45.67 -16.32 45.34 -17 45 C-15.515 44.505 -15.515 44.505 -14 44 C-14.08678763 41.70760939 -14.19495273 39.4160193 -14.3125 37.125 C-14.37050781 35.84882812 -14.42851562 34.57265625 -14.48828125 33.2578125 C-14.65714844 32.18273437 -14.82601563 31.10765625 -15 30 C-15.99 29.34 -16.98 28.68 -18 28 C-16.68 27.67 -15.36 27.34 -14 27 C-14 26.01 -14 25.02 -14 24 C-14.99 23.67 -15.98 23.34 -17 23 C-14.03 23 -11.06 23 -8 23 C-8 21.68 -8 20.36 -8 19 C-6.35 19 -4.7 19 -3 19 C-3 17.02 -3 15.04 -3 13 C-4.65 13 -6.3 13 -8 13 C-7.67 12.34 -7.34 11.68 -7 11 C-4.69 11 -2.38 11 0 11 C0 7.37 0 3.74 0 0 Z " fill="#181515" transform="translate(30,53)"/>
<path d="M0 0 C4.62 0 9.24 0 14 0 C14 7.59 14 15.18 14 23 C9.38 23 4.76 23 0 23 C0 15.41 0 7.82 0 0 Z " fill="#D7B514" transform="translate(49,53)"/>
<path d="M0 0 C8 0 8 0 10 1 C11.87056791 1.2275015 13.74685958 1.40962811 15.625 1.5625 C16.62789062 1.64628906 17.63078125 1.73007812 18.6640625 1.81640625 C19.43492188 1.87699219 20.20578125 1.93757813 21 2 C21.33 3.32 21.66 4.64 22 6 C20.35 6 18.7 6 17 6 C17 8.97 17 11.94 17 15 C16.01 15 15.02 15 14 15 C14 12.03 14 9.06 14 6 C12.35 6 10.7 6 9 6 C8.67 8.97 8.34 11.94 8 15 C2.06 15 -3.88 15 -10 15 C-10 11.04 -10 7.08 -10 3 C-6.04 3 -2.08 3 2 3 C2 2.34 2 1.68 2 1 C1.34 0.67 0.68 0.34 0 0 Z " fill="#383726" transform="translate(78,31)"/>
<path d="M0 0 C0.33 0 0.66 0 1 0 C1 13.86 1 27.72 1 42 C1.66 42.33 2.32 42.66 3 43 C2.34 43 1.68 43 1 43 C1 49.6 1 56.2 1 63 C4.3 63 7.6 63 11 63 C11 59.37 11 55.74 11 52 C11.33 52 11.66 52 12 52 C12 59.59 12 67.18 12 75 C11.67 75 11.34 75 11 75 C11 71.37 11 67.74 11 64 C7.7 64 4.4 64 1 64 C1.33 83.8 1.66 103.6 2 124 C3.98 122.35 5.96 120.7 8 119 C6.84826645 121.46800047 5.95216435 123.04783565 4 125 C5.70929687 124.98259766 5.70929687 124.98259766 7.453125 124.96484375 C19.335612 124.88376057 31.13913593 125.30009654 43 126 C43.19916016 124.84951172 43.19916016 124.84951172 43.40234375 123.67578125 C44.07749852 120.6530295 45.30875828 118.5736287 47 116 C49.64 116.33 52.28 116.66 55 117 C54.01 117.495 54.01 117.495 53 118 C53 118.66 53 119.32 53 120 C51.2984375 120.4021875 51.2984375 120.4021875 49.5625 120.8125 C48.386875 121.204375 47.21125 121.59625 46 122 C45.505 123.485 45.505 123.485 45 125 C49.95 125.33 54.9 125.66 60 126 C60 126.33 60 126.66 60 127 C40.2 127 20.4 127 0 127 C0 85.09 0 43.18 0 0 Z " fill="#454945" transform="translate(1,1)"/>
<path d="M0 0 C55 0 55 0 64 1 C64 1.33 64 1.66 64 2 C58.06 2.33 52.12 2.66 46 3 C45.67 4.32 45.34 5.64 45 7 C44.505 4.525 44.505 4.525 44 2 C37.73 2 31.46 2 25 2 C24.67 2.66 24.34 3.32 24 4 C23.67 3.67 23.34 3.34 23 3 C21.65732587 2.91368126 20.31025678 2.89293527 18.96484375 2.90234375 C18.15595703 2.90556641 17.34707031 2.90878906 16.51367188 2.91210938 C15.2384668 2.92467773 15.2384668 2.92467773 13.9375 2.9375 C13.08349609 2.94201172 12.22949219 2.94652344 11.34960938 2.95117188 C9.23304337 2.96299627 7.11651315 2.98093231 5 3 C7.475 5.97 7.475 5.97 10 9 C5.79509714 7.34807388 5.19017065 5.98771331 2 2 C1.67 43.58 1.34 85.16 1 128 C0.67 128 0.34 128 0 128 C0 85.76 0 43.52 0 0 Z " fill="#101011" transform="translate(0,0)"/>
<path d="M0 0 C2.97 0 5.94 0 9 0 C9 1.65 9 3.3 9 5 C10.65 5 12.3 5 14 5 C14 6.65 14 8.3 14 10 C12.68 10 11.36 10 10 10 C10 10.66 10 11.32 10 12 C11.32 12.33 12.64 12.66 14 13 C14 14.98 14 16.96 14 19 C12.35 19 10.7 19 9 19 C9 20.32 9 21.64 9 23 C6.03 23 3.06 23 0 23 C0 15.41 0 7.82 0 0 Z " fill="#06B505" transform="translate(13,53)"/>
<path d="M0 0 C4.62 0 9.24 0 14 0 C14 1.65 14 3.3 14 5 C11.03 5 8.06 5 5 5 C5 6.32 5 7.64 5 9 C7.97 9 10.94 9 14 9 C14 13.62 14 18.24 14 23 C9.38 23 4.76 23 0 23 C0 21.35 0 19.7 0 18 C2.97 18 5.94 18 9 18 C9 16.68 9 15.36 9 14 C6.03 14 3.06 14 0 14 C0 9.38 0 4.76 0 0 Z " fill="#1479C2" transform="translate(103,53)"/>
<path d="M0 0 C4.62 0 9.24 0 14 0 C14 3.3 14 6.6 14 10 C12.35 10 10.7 10 9 10 C9 8.35 9 6.7 9 5 C7.68 5 6.36 5 5 5 C5 9.29 5 13.58 5 18 C6.32 18 7.64 18 9 18 C9 16.68 9 15.36 9 14 C10.65 14 12.3 14 14 14 C14 16.97 14 19.94 14 23 C9.38 23 4.76 23 0 23 C0 15.41 0 7.82 0 0 Z " fill="#DB215C" transform="translate(67,53)"/>
<path d="M0 0 C1.65 0 3.3 0 5 0 C5 2.97 5 5.94 5 9 C6.32 9 7.64 9 9 9 C9 6.03 9 3.06 9 0 C10.65 0 12.3 0 14 0 C14 3.3 14 6.6 14 10 C12.68 10 11.36 10 10 10 C10 10.99 10 11.98 10 13 C11.32 13 12.64 13 14 13 C14 16.3 14 19.6 14 23 C12.35 23 10.7 23 9 23 C9 20.03 9 17.06 9 14 C7.68 14 6.36 14 5 14 C5 16.97 5 19.94 5 23 C3.35 23 1.7 23 0 23 C0 15.41 0 7.82 0 0 Z " fill="#E5150F" transform="translate(85,53)"/>
<path d="M0 0 C1.08667969 0.02707031 2.17335938 0.05414063 3.29296875 0.08203125 C4.54013672 0.13423828 4.54013672 0.13423828 5.8125 0.1875 C5.8125 0.8475 5.8125 1.5075 5.8125 2.1875 C6.1425 1.5275 6.4725 0.8675 6.8125 0.1875 C10.7725 0.1875 14.7325 0.1875 18.8125 0.1875 C18.1525 2.8275 17.4925 5.4675 16.8125 8.1875 C6.5825 8.1875 -3.6475 8.1875 -14.1875 8.1875 C-12.5375 6.5375 -10.8875 4.8875 -9.1875 3.1875 C-8.71699219 2.59324219 -8.24648438 1.99898438 -7.76171875 1.38671875 C-5.28513463 -0.49990985 -3.04394876 -0.0981919 0 0 Z " fill="#000001" transform="translate(32.1875,103.8125)"/>
<path d="M0 0 C3.16227399 0 6.11640488 -0.17014788 9.25 -0.5 C10.8175 -0.665 12.385 -0.83 14 -1 C14.99 2.3 15.98 5.6 17 9 C10.07 9 3.14 9 -4 9 C-4 7.35 -4 5.7 -4 4 C-7.3 3.67 -10.6 3.34 -14 3 C-13.67 2.01 -13.34 1.02 -13 0 C-8.36383811 -1.5453873 -4.70654243 -0.9654446 0 0 Z " fill="#171717" transform="translate(70,118)"/>
<path d="M0 0 C3.0560466 2.72566318 3.91873383 4.36148007 4.4375 8.4375 C3.97198435 12.22812744 2.91818256 14.7231048 1 18 C-1.6875 18.375 -1.6875 18.375 -5 18 C-8.19061975 15.35246446 -9.81660508 13.85924505 -10.2265625 9.703125 C-9.9780488 6.08192538 -9.62724159 3.73924901 -7.25 0.9375 C-4.48003669 -0.21665138 -2.96482939 -0.59296588 0 0 Z " fill="#F9F9F7" transform="translate(43,28)"/>
<path d="M0 0 C4.29 0 8.58 0 13 0 C12.01 0.33 11.02 0.66 10 1 C10 12.88 10 24.76 10 37 C5.05 37 0.1 37 -5 37 C-5.495 37.99 -5.495 37.99 -6 39 C-6.33 38.67 -6.66 38.34 -7 38 C-9.38296758 37.95149175 -11.7432264 37.95805959 -14.125 38 C-22.12912144 38.08011405 -30.0223705 37.64187824 -38 37 C-38 38.98 -38 40.96 -38 43 C-40 39.125 -40 39.125 -40 38 C-42.29141286 37.94615479 -44.58318188 37.90727913 -46.875 37.875 C-48.78925781 37.84019531 -48.78925781 37.84019531 -50.7421875 37.8046875 C-54.08593338 37.64358476 -54.08593338 37.64358476 -56 40 C-56 39.01 -56 38.02 -56 37 C-57.47146484 37.10828125 -57.47146484 37.10828125 -58.97265625 37.21875 C-60.33588875 37.31320618 -61.6991744 37.40689712 -63.0625 37.5 C-63.77970215 37.5513208 -64.4969043 37.6026416 -65.23583984 37.65551758 C-68.90846496 37.89486171 -72.51325796 38.02563219 -76.19140625 37.85546875 C-82.99203998 37.29449091 -82.99203998 37.29449091 -89.26953125 39.33203125 C-91.14382041 41.10508068 -91.14382041 41.10508068 -93 44 C-93.66 43.67 -94.32 43.34 -95 43 C-93.824375 41.63875 -93.824375 41.63875 -92.625 40.25 C-90.69947504 37.94809764 -89.17794259 35.78422793 -88 33 C-87.01 33.33 -86.02 33.66 -85 34 C-85 34.33 -85 34.66 -85 35 C-70.15 35.495 -70.15 35.495 -55 36 C-54.505 35.01 -54.505 35.01 -54 34 C-54 34.66 -54 35.32 -54 36 C-33.21 36 -12.42 36 9 36 C9 24.45 9 12.9 9 1 C6.03 1 3.06 1 0 1 C0 0.67 0 0.34 0 0 Z " fill="#2B2724" transform="translate(104,76)"/>
<path d="M0 0 C1.65 0 3.3 0 5 0 C5 5.94 5 11.88 5 18 C7.97 18 10.94 18 14 18 C14 19.65 14 21.3 14 23 C9.38 23 4.76 23 0 23 C0 15.41 0 7.82 0 0 Z " fill="#7526B6" transform="translate(31,53)"/>
<path d="M0 0 C9.27734375 -0.09765625 9.27734375 -0.09765625 12 0 C13 1 13 1 13.1328125 3.25 C13.13023438 4.1575 13.12765625 5.065 13.125 6 C13.12757812 6.9075 13.13015625 7.815 13.1328125 8.75 C13 11 13 11 12 12 C7.99779347 12.14355117 4.00558317 12.04216403 0 12 C0 8.04 0 4.08 0 0 Z " fill="#CFCFC4" transform="translate(68,34)"/>
<path d="M0 0 C9.27734375 -0.09765625 9.27734375 -0.09765625 12 0 C13 1 13 1 13.1875 3.9375 C13 7 13 7 11 9 C11.66 9.33 12.32 9.66 13 10 C13 10.66 13 11.32 13 12 C8.25 11.25 8.25 11.25 6 9 C3.93125966 8.3574765 3.93125966 8.3574765 2 8 C2 9.32 2 10.64 2 12 C1.34 12 0.68 12 0 12 C0 8.04 0 4.08 0 0 Z " fill="#FDFDFC" transform="translate(54,34)"/>
<path d="M0 0 C0.33 0 0.66 0 1 0 C1 12.21 1 24.42 1 37 C-2.63 37 -6.26 37 -10 37 C-10 40.96 -10 44.92 -10 49 C-11.98 49 -13.96 49 -16 49 C-16 48.67 -16 48.34 -16 48 C-14.35 48 -12.7 48 -11 48 C-11.2784375 46.948125 -11.2784375 46.948125 -11.5625 45.875 C-12.05156976 42.66111302 -11.66231558 40.16439664 -11 37 C-11.66 36.67 -12.32 36.34 -13 36 C-11.02 35.505 -11.02 35.505 -9 35 C-9.165 34.01644531 -9.33 33.03289063 -9.5 32.01953125 C-10.09062805 27.89033411 -10.07715585 23.85005814 -10 19.6875 C-9.69947737 14.69675402 -9.69947737 14.69675402 -11 10 C-13.97 10 -16.94 10 -20 10 C-20 9.67 -20 9.34 -20 9 C-16.04 9 -12.08 9 -8 9 C-7.80476613 12.22886781 -7.61854024 15.45783148 -7.4375 18.6875 C-7.38142578 19.59951172 -7.32535156 20.51152344 -7.26757812 21.45117188 C-7.21923828 22.33740234 -7.17089844 23.22363281 -7.12109375 24.13671875 C-7.0739624 24.94842529 -7.02683105 25.76013184 -6.97827148 26.59643555 C-7.00161772 29.1789485 -7.4195208 31.48849909 -8 34 C-4.71058562 35.16537965 -4.71058562 35.16537965 0 36 C0 24.12 0 12.24 0 0 Z " fill="#22201E" transform="translate(113,16)"/>
<path d="M0 0 C0.99 0 1.98 0 3 0 C3 4.62 3 9.24 3 14 C4.98 14 6.96 14 9 14 C9 12.35 9 10.7 9 9 C10.32 9 11.64 9 13 9 C13 11.97 13 14.94 13 18 C8.71 18 4.42 18 0 18 C0 12.06 0 6.12 0 0 Z " fill="#F00A52" transform="translate(68,58)"/>
<path d="M0 0 C6.75 0.875 6.75 0.875 9 2 C10.66619446 2.0396713 12.33391013 2.04384447 14 2 C14.33 3.32 14.66 4.64 15 6 C18.63 6 22.26 6 26 6 C26 6.33 26 6.66 26 7 C24.04174127 7.02694851 22.08337774 7.04637218 20.125 7.0625 C18.48917969 7.07990234 18.48917969 7.07990234 16.8203125 7.09765625 C14 7 14 7 12 6 C12.12375 7.299375 12.12375 7.299375 12.25 8.625 C11.93770893 12.84092949 10.69270085 14.78371843 8 18 C5.75 18.875 5.75 18.875 4 19 C4.495 17.7315625 4.495 17.7315625 5 16.4375 C6.08642319 12.70292029 6.35825517 9.86915586 6 6 C4.29387543 2.99397099 2.92272621 1.94848414 0 0 Z " fill="#6D6E5F" transform="translate(40,27)"/>
<path d="M0 0 C0.66 0.33 1.32 0.66 2 1 C2 1.33 2 1.66 2 2 C2.33 2.66 2.66 3.32 3 4 C6.02934491 4.65772428 6.02934491 4.65772428 9 5 C8.67 6.65 8.34 8.3 8 10 C1.73 10 -4.54 10 -11 10 C-10.34 8.35 -9.68 6.7 -9 5 C-5.535 4.505 -5.535 4.505 -2 4 C-2 3.34 -2 2.68 -2 2 C-1.34 2 -0.68 2 0 2 C0 1.34 0 0.68 0 0 Z " fill="#090909" transform="translate(56,117)"/>
<path d="M0 0 C2.64 0.33 5.28 0.66 8 1 C7.34 1.33 6.68 1.66 6 2 C6 2.66 6 3.32 6 4 C4.865625 4.268125 3.73125 4.53625 2.5625 4.8125 C1.386875 5.204375 0.21125 5.59625 -1 6 C-1.33 6.99 -1.66 7.98 -2 9 C2.95 9.33 7.9 9.66 13 10 C13 10.33 13 10.66 13 11 C-6.47 11 -25.94 11 -46 11 C-43.9957983 6.9915966 -42.50944037 5.58590343 -39 3 C-40.15173355 5.46800047 -41.04783565 7.04783565 -43 9 C-41.29070313 8.98259766 -41.29070313 8.98259766 -39.546875 8.96484375 C-27.664388 8.88376057 -15.86086407 9.30009654 -4 10 C-3.86722656 9.23300781 -3.73445313 8.46601562 -3.59765625 7.67578125 C-2.92250148 4.6530295 -1.69124172 2.5736287 0 0 Z " fill="#1E1E1E" transform="translate(48,117)"/>
<path d="M0 0 C4.29 0 8.58 0 13 0 C13 2.64 13 5.28 13 8 C8.05 8 3.1 8 -2 8 C-1.34 5.36 -0.68 2.72 0 0 Z " fill="#000001" transform="translate(52,104)"/>
<path d="M0 0 C7.92 0 15.84 0 24 0 C23.67 1.65 23.34 3.3 23 5 C15.74 5 8.48 5 1 5 C0.67 3.35 0.34 1.7 0 0 Z " fill="#000000" transform="translate(53,26)"/>
<path d="M0 0 C1.65 0 3.3 0 5 0 C5 3.3 5 6.6 5 10 C3.68 10 2.36 10 1 10 C1 10.99 1 11.98 1 13 C2.32 13 3.64 13 5 13 C5 16.3 5 19.6 5 23 C3.35 23 1.7 23 0 23 C0 18.71 0 14.42 0 10 C-1.32 9.67 -2.64 9.34 -4 9 C-2.68 9 -1.36 9 0 9 C0 6.03 0 3.06 0 0 Z " fill="#A54834" transform="translate(94,53)"/>
<path d="M0 0 C4.95 0 9.9 0 15 0 C15 2.31 15 4.62 15 7 C14 8 14 8 11.27734375 8.09765625 C9.62412109 8.08025391 9.62412109 8.08025391 7.9375 8.0625 C6.28041016 8.04896484 6.28041016 8.04896484 4.58984375 8.03515625 C3.73519531 8.02355469 2.88054688 8.01195312 2 8 C1.34 5.36 0.68 2.72 0 0 Z " fill="#020202" transform="translate(50,17)"/>
<path d="M0 0 C2.97 0 5.94 0 9 0 C9 1.65 9 3.3 9 5 C10.65 5 12.3 5 14 5 C14 6.65 14 8.3 14 10 C12.68 10 11.36 10 10 10 C9.67 10.66 9.34 11.32 9 12 C9 11.34 9 10.68 9 10 C7.35 10 5.7 10 4 10 C4 8.35 4 6.7 4 5 C3.01 4.67 2.02 4.34 1 4 C1.99 4 2.98 4 4 4 C4 3.01 4 2.02 4 1 C2.68 0.67 1.36 0.34 0 0 Z " fill="#0F930B" transform="translate(13,53)"/>
<path d="M0 0 C0.66 0 1.32 0 2 0 C2.33 4.29 2.66 8.58 3 13 C5.97 13 8.94 13 12 13 C12 14.32 12 15.64 12 17 C8.04 17 4.08 17 0 17 C0 11.39 0 5.78 0 0 Z " fill="#6C00D6" transform="translate(32,59)"/>
<path d="M0 0 C9.27734375 -0.09765625 9.27734375 -0.09765625 12 0 C13 1 13 1 13 6 C9.04 5.67 5.08 5.34 1 5 C1 7.31 1 9.62 1 12 C0.67 12 0.34 12 0 12 C0 8.04 0 4.08 0 0 Z " fill="#C3C3B5" transform="translate(68,34)"/>
<path d="M0 0 C0.99 0.33 1.98 0.66 3 1 C3 1.33 3 1.66 3 2 C17.85 2.495 17.85 2.495 33 3 C33.33 2.34 33.66 1.68 34 1 C34 1.66 34 2.32 34 3 C36.64 3 39.28 3 42 3 C42 3.33 42 3.66 42 4 C40.72125 4.12375 39.4425 4.2475 38.125 4.375 C34.65209064 4.69042399 34.65209064 4.69042399 32 7 C32 6.01 32 5.02 32 4 C31.01902344 4.0721875 30.03804687 4.144375 29.02734375 4.21875 C27.66411125 4.31320618 26.3008256 4.40689712 24.9375 4.5 C23.86169678 4.5769812 23.86169678 4.5769812 22.76416016 4.65551758 C19.09153504 4.89486171 15.48674204 5.02563219 11.80859375 4.85546875 C5.00796002 4.29449091 5.00796002 4.29449091 -1.26953125 6.33203125 C-3.14382041 8.10508068 -3.14382041 8.10508068 -5 11 C-5.66 10.67 -6.32 10.34 -7 10 C-6.21625 9.0925 -5.4325 8.185 -4.625 7.25 C-2.69947504 4.94809764 -1.17794259 2.78422793 0 0 Z " fill="#1E1E20" transform="translate(16,109)"/>
<path d="M0 0 C4.29 0 8.58 0 13 0 C13 0.99 13 1.98 13 3 C11.35 3 9.7 3 8 3 C8 5.97 8 8.94 8 12 C7.01 12 6.02 12 5 12 C5 9.03 5 6.06 5 3 C3.35 3 1.7 3 0 3 C0 2.01 0 1.02 0 0 Z " fill="#E2E2D7" transform="translate(87,34)"/>
<path d="M0 0 C1.32 0 2.64 0 4 0 C4 5.61 4 11.22 4 17 C3.01 17 2.02 17 1 17 C-0.18681726 13.43954823 -0.09689832 10.56191663 -0.0625 6.8125 C-0.05347656 5.54019531 -0.04445312 4.26789062 -0.03515625 2.95703125 C-0.02355469 1.98121094 -0.01195312 1.00539062 0 0 Z " fill="#F3CD05" transform="translate(58,58)"/>
<path d="M0 0 C0.33 0 0.66 0 1 0 C1.31563182 5.26053037 0.66590937 8.44573816 -2 13 C-4.8125 13.25 -4.8125 13.25 -8 13 C-9.875 11 -9.875 11 -11 9 C-9.5437455 8.32880451 -8.08492133 7.66318193 -6.625 7 C-5.81289063 6.62875 -5.00078125 6.2575 -4.1640625 5.875 C-2 5 -2 5 0 5 C0 3.35 0 1.7 0 0 Z " fill="#EEEEE6" transform="translate(46,33)"/>
<path d="M0 0 C1.32 0 2.64 0 4 0 C4 4.29 4 8.58 4 13 C2.68 13 1.36 13 0 13 C0 8.71 0 4.42 0 0 Z " fill="#03060E" transform="translate(54,58)"/>
<path d="M0 0 C0.99 0 1.98 0 3 0 C3.19493195 2.27020744 3.38070418 4.54120289 3.5625 6.8125 C3.66691406 8.07707031 3.77132812 9.34164062 3.87890625 10.64453125 C4 14 4 14 3 17 C2.01 17 1.02 17 0 17 C0 11.39 0 5.78 0 0 Z " fill="#ECC400" transform="translate(50,58)"/>
<path d="M0 0 C0.99 0 1.98 0 3 0 C3 5.61 3 11.22 3 17 C2.01 17 1.02 17 0 17 C0 11.39 0 5.78 0 0 Z " fill="#FA005E" transform="translate(68,58)"/>
<path d="M0 0 C0.33 0 0.66 0 1 0 C1 1.98 1 3.96 1 6 C-0.32 6.33 -1.64 6.66 -3 7 C-3 6.67 -3 6.34 -3 6 C-5.31 5.67 -7.62 5.34 -10 5 C-10 3.68 -10 2.36 -10 1 C-9.36191406 1.01160156 -8.72382812 1.02320313 -8.06640625 1.03515625 C-7.24011719 1.04417969 -6.41382813 1.05320313 -5.5625 1.0625 C-4.32693359 1.07990234 -4.32693359 1.07990234 -3.06640625 1.09765625 C-1.00836062 1.23267348 -1.00836062 1.23267348 0 0 Z " fill="#8C8C7A" transform="translate(66,35)"/>
<path d="M0 0 C1.65 0 3.3 0 5 0 C5 1.98 5 3.96 5 6 C1.7 6 -1.6 6 -5 6 C-5 4.35 -5 2.7 -5 1 C-4.67 2.32 -4.34 3.64 -4 5 C-3.01 5 -2.02 5 -1 5 C-0.67 3.35 -0.34 1.7 0 0 Z " fill="#34A425" transform="translate(22,66)"/>
<path d="M0 0 C2.97 0 5.94 0 9 0 C9 0.99 9 1.98 9 3 C10.32 3.33 11.64 3.66 13 4 C8.71 4 4.42 4 0 4 C0 2.68 0 1.36 0 0 Z " fill="#0073D5" transform="translate(104,72)"/>
<path d="M0 0 C0.33 1.32 0.66 2.64 1 4 C1.99 4 2.98 4 4 4 C4 2.68 4 1.36 4 0 C5.98 0 7.96 0 10 0 C10 1.65 10 3.3 10 5 C8.68 5 7.36 5 6 5 C5.67 5.66 5.34 6.32 5 7 C5 6.34 5 5.68 5 5 C3.35 5 1.7 5 0 5 C0 3.35 0 1.7 0 0 Z " fill="#31A824" transform="translate(17,58)"/>
<path d="M0 0 C2.64 0.33 5.28 0.66 8 1 C7.01 1.495 7.01 1.495 6 2 C6 2.66 6 3.32 6 4 C4.88625 4.2475 3.7725 4.495 2.625 4.75 C-1.04615198 5.61005339 -1.04615198 5.61005339 -2.4375 8.125 C-2.623125 8.74375 -2.80875 9.3625 -3 10 C-4 7 -4 7 -3.22265625 5.17578125 C-2.1484375 3.45052083 -1.07421875 1.72526042 0 0 Z " fill="#292929" transform="translate(48,117)"/>
<path d="M0 0 C0.8353125 0.495 0.8353125 0.495 1.6875 1 C1.0275 1 0.3675 1 -0.3125 1 C-0.3125 1.66 -0.3125 2.32 -0.3125 3 C-4.33054691 3.84098656 -7.33053543 4.05404945 -11.3125 3 C-10.9825 2.01 -10.6525 1.02 -10.3125 0 C-6.49244156 -1.27335281 -3.74765604 -1.62060802 0 0 Z " fill="#838383" transform="translate(67.3125,118)"/>
<path d="M0 0 C1.32 0 2.64 0 4 0 C4 2.97 4 5.94 4 9 C2.68 9 1.36 9 0 9 C0 6.03 0 3.06 0 0 Z " fill="#F40A07" transform="translate(95,67)"/>
<path d="M0 0 C2.64 0 5.28 0 8 0 C8 2.31 8 4.62 8 7 C6.68 7 5.36 7 4 7 C4 5.35 4 3.7 4 2 C2.68 2 1.36 2 0 2 C0 1.34 0 0.68 0 0 Z " fill="#080406" transform="translate(18,50)"/>
<path d="M0 0 C0.99 0 1.98 0 3 0 C3 3.96 3 7.92 3 12 C2.01 12 1.02 12 0 12 C0 8.04 0 4.08 0 0 Z " fill="#D5D5C7" transform="translate(83,34)"/>
<path d="M0 0 C2.64 0.33 5.28 0.66 8 1 C8 2.32 8 3.64 8 5 C5.36 5 2.72 5 0 5 C0 3.35 0 1.7 0 0 Z " fill="#02D102" transform="translate(14,71)"/>
<path d="M0 0 C2.97 0 5.94 0 9 0 C9 4.29 9 8.58 9 13 C7.68 13 6.36 13 5 13 C5 11.68 5 10.36 5 9 C5.99 9 6.98 9 8 9 C8 6.36 8 3.72 8 1 C5.36 1 2.72 1 0 1 C0 0.67 0 0.34 0 0 Z " fill="#1E85C8" transform="translate(108,62)"/>
<path d="M0 0 C2.64 0 5.28 0 8 0 C8 1.32 8 2.64 8 4 C5.36 4 2.72 4 0 4 C0 2.68 0 1.36 0 0 Z " fill="#140E07" transform="translate(104,67)"/>
<path d="M0 0 C1.32 0 2.64 0 4 0 C4 2.64 4 5.28 4 8 C2.68 8 1.36 8 0 8 C0 5.36 0 2.72 0 0 Z " fill="#F50806" transform="translate(95,54)"/>
<path d="M0 0 C0.66 0.33 1.32 0.66 2 1 C1.95875 2.2375 1.9175 3.475 1.875 4.75 C1.86341709 8.01637962 2.1431298 10.2146947 4 13 C2.02 13 0.04 13 -2 13 C-2.33 12.34 -2.66 11.68 -3 11 C-2.34 10.01 -1.68 9.02 -1 8 C-0.54860541 5.9507906 -0.54860541 5.9507906 -0.375 3.8125 C-0.25125 2.554375 -0.1275 1.29625 0 0 Z " fill="#37372D" transform="translate(32,31)"/>
<path d="M0 0 C1.65 0 3.3 0 5 0 C5.33 1.32 5.66 2.64 6 4 C9.63 4 13.26 4 17 4 C17 4.33 17 4.66 17 5 C15.10489301 5.08160748 13.20875496 5.13946459 11.3125 5.1875 C9.72888672 5.23970703 9.72888672 5.23970703 8.11328125 5.29296875 C4.61841396 4.96409165 2.77061447 4.12293836 0 2 C0 1.34 0 0.68 0 0 Z " fill="#353527" transform="translate(49,29)"/>
<path d="M0 0 C0.33 0 0.66 0 1 0 C1.25 3.3125 1.25 3.3125 1 7 C-0.875 8.9375 -0.875 8.9375 -3 10 C-3.66 10 -4.32 10 -5 10 C-4.34 8.02 -3.68 6.04 -3 4 C-2.34 4 -1.68 4 -1 4 C-0.67 2.68 -0.34 1.36 0 0 Z " fill="#36362D" transform="translate(49,36)"/>
<path d="M0 0 C1.32 0 2.64 0 4 0 C4 1.65 4 3.3 4 5 C1.09399739 6.25664978 -0.79604584 7 -4 7 C-4 6.34 -4 5.68 -4 5 C-2.68 5 -1.36 5 0 5 C0 3.35 0 1.7 0 0 Z " fill="#070205" transform="translate(22,72)"/>
<path d="M0 0 C0.33 0.99 0.66 1.98 1 3 C1.66 3.33 2.32 3.66 3 4 C3 4.66 3 5.32 3 6 C-1.75 5.25 -1.75 5.25 -4 3 C-5.31747324 2.30251417 -6.64914193 1.63040043 -8 1 C-5.07175348 0.02391783 -3.04386724 -0.08226668 0 0 Z " fill="#E9E9DE" transform="translate(64,40)"/>
<path d="M0 0 C0.99 0 1.98 0 3 0 C3 2.97 3 5.94 3 9 C2.01 9 1.02 9 0 9 C-1.10844919 5.67465243 -0.84454356 3.37817425 0 0 Z " fill="#EBC300" transform="translate(59,66)"/>
<path d="M0 0 C0.99 0 1.98 0 3 0 C3 2.97 3 5.94 3 9 C2.01 9 1.02 9 0 9 C0 6.03 0 3.06 0 0 Z " fill="#F80000" transform="translate(86,67)"/>
<path d="M0 0 C2.97 0 5.94 0 9 0 C8.01 0.33 7.02 0.66 6 1 C6 1.99 6 2.98 6 4 C4.02 4 2.04 4 0 4 C0 2.68 0 1.36 0 0 Z " fill="#241A08" transform="translate(108,58)"/>
<path d="M0 0 C3.3125 0.1875 3.3125 0.1875 7 1 C8.92171842 3.41764576 10 4.88467214 10 8 C9.01 8 8.02 8 7 8 C5.6273318 6.02678947 4.29572383 4.02456848 3 2 C2.01 1.34 1.02 0.68 0 0 Z " fill="#444436" transform="translate(40,27)"/>
<path d="M0 0 C3.63 0 7.26 0 11 0 C11.33 0.99 11.66 1.98 12 3 C7.06729471 4.6442351 4.45975807 3.18615592 0 1 C0 0.67 0 0.34 0 0 Z " fill="#010100" transform="translate(41,26)"/>
<path d="M0 0 C0.99 0 1.98 0 3 0 C3 2.64 3 5.28 3 8 C2.01 8 1.02 8 0 8 C0 5.36 0 2.72 0 0 Z " fill="#FC0260" transform="translate(77,67)"/>
<path d="M0 0 C-0.33 4.62 -0.66 9.24 -1 14 C-2.98 14 -4.96 14 -7 14 C-7 13.67 -7 13.34 -7 13 C-5.35 13 -3.7 13 -2 13 C-2.185625 12.29875 -2.37125 11.5975 -2.5625 10.875 C-3.05156976 7.66111302 -2.66231558 5.16439664 -2 2 C-2.66 1.67 -3.32 1.34 -4 1 C-2 0 -2 0 0 0 Z " fill="#140E09" transform="translate(104,51)"/>
<path d="M0 0 C0.99 0 1.98 0 3 0 C3 2.64 3 5.28 3 8 C2.01 8 1.02 8 0 8 C0 5.36 0 2.72 0 0 Z " fill="#F80000" transform="translate(86,54)"/>
<path d="M0 0 C2.64 0 5.28 0 8 0 C8 0.99 8 1.98 8 3 C5.36 3 2.72 3 0 3 C0 2.01 0 1.02 0 0 Z " fill="#007ADB" transform="translate(104,54)"/>
<path d="M0 0 C2.64 0 5.28 0 8 0 C8 0.99 8 1.98 8 3 C5.36 3 2.72 3 0 3 C0 2.01 0 1.02 0 0 Z " fill="#FD0059" transform="translate(72,54)"/>
<path d="M0 0 C2.64 0 5.28 0 8 0 C8 0.99 8 1.98 8 3 C5.36 3 2.72 3 0 3 C0 2.01 0 1.02 0 0 Z " fill="#EEC500" transform="translate(54,54)"/>
<path d="M0 0 C2.97 0 5.94 0 9 0 C8.67 0.99 8.34 1.98 8 3 C5 3 2 3 -1 3 C-0.67 2.01 -0.34 1.02 0 0 Z " fill="#AEAEAE" transform="translate(74,118)"/>
<path d="M0 0 C1.32 0 2.64 0 4 0 C4 1.65 4 3.3 4 5 C3.01 5 2.02 5 1 5 C1 6.65 1 8.3 1 10 C0.67 10 0.34 10 0 10 C0 6.7 0 3.4 0 0 Z " fill="#04DB03" transform="translate(13,54)"/>
<path d="M0 0 C2.64 0.33 5.28 0.66 8 1 C7.01 1.495 7.01 1.495 6 2 C6 2.66 6 3.32 6 4 C5.01 4 4.02 4 3 4 C3 3.01 3 2.02 3 1 C2.34 1 1.68 1 1 1 C0.67 1.99 0.34 2.98 0 4 C0 2.68 0 1.36 0 0 Z " fill="#ACACAD" transform="translate(48,117)"/>
</svg>
